# xmcd
#
# Track frame offsets:
#	150
#	3388
#	18153
#	32315
#	47375
#	61853
#	76688
#	90728
#	106035
#	121403
#	135598
#	149315
#	163250
#	178288
#	194005
#	206918
#	222968
#	238465
#	250940
#	263378
#	282850
#	298670
#	313788
#
# Disc length: 4425 seconds
#
# Revision: 0
# Processed by: cddbd v1.5.2PL0 Copyright (c) Steve Scherf et al.
# Submitted via: EZCDAudioConverter 3.1.5.1
#
DISCID=47114717
DTITLE=Βασίλης Τσιτσάνης - Η Ελλάδα Του Τσιτσάνη
DYEAR=1900
DGENRE=rempetiko
TTITLE0=Βασίλης Τσιτσάνης - Δυο Λόγια Του Βασίλη
TTITLE1=Βασίλης Τσιτσάνης - Το Μινόρε Του Τσιτσάνη
TTITLE2=Στράτος Παγιουμτζή*, Στελλάκης* - Αρχόντισσα
TTITLE3=Σωτηρία Μπέλλου, Βασίλης Τσιτσάνης - Κάνε Λιγάκι Υπομονή
TTITLE4=Πρόδρομος Τσαουσάκη*, Ρένα Ντάλλια* - Όμορφη Θεσσαλονίκη
TTITLE5=Ιωάννα Γεωργακοπούλου, Βασίλης Τσιτσάνης - Γερακίνα
TTITLE6=	–Μάρκος Βαμβακάρη*, Γιάννης Παπαϊωάννου, Απόστολος Χατζηχρήστος - Δρο
TTITLE6=σούλα
TTITLE7=Μαρίκα Νίνου, Βασίλης Τσιτσάνης - Τι Σήμερα, Τι Αύριο, Τι Τώρα
TTITLE8=Τάκης Μπίνη*, Μαρίκα Νίνου - Θα Κάνω Ντου Βρε Πονηρή
TTITLE9=Σταύρος Τζουανάκο*, Βασίλης Τσιτσάνης - Τρελή Που Θέλεις Να Με Σταφενώ
TTITLE9=σεις
TTITLE10=Στέλλα Χασκίλ, Μάρκος Βαμβάκαρη*, Βασίλης Τσιτσάνης - Κάποια Μάνα Ανα
TTITLE10=στενάζει
TTITLE11=Φώτης Πολυμέρη*, Βασίλης Τσιτσάνης - Νύχτες Μαγικές (Αραπίνες)
TTITLE12=Στελλάκη*, Ιωάννα Γεωργακοπούλου, Βασίλης Τσιτσάνης - Αχάριστη
TTITLE13=Στέλιος Καζαντζίδη*, Γιώτα Λύδια, Μαρινέλλα - Συννεφιασμένη Κυριακή
TTITLE14=Δήμητρα Γαλάνη - Σταυραετός
TTITLE15=Πόλυ Πάνου - Της Ταβέρνας Το Ρολόι
TTITLE16=Γρηγόρης Μπιθικώτση*, Βασίλης Τσιτσάνης - Στα Τρίκαλα Στα Δυο Στενά
TTITLE17=Γιώργος Νταλάρας - Της Κοινωνίας Η Διαφορά
TTITLE18=Στράτος Διονυσίου - Όταν Πίνεις Στη Ταβέρνα
TTITLE19=Καίτη Γκρέϋ - Θέλω Να Είναι Κυριακή
TTITLE20=Βίκυ Μοσχολιού - Δεν Είναι Όνειρο Η Ζωή
TTITLE21=Σταμάτης Κόκοτας - Το Παιδί Απ' Το Λιμάνι
TTITLE22=Βασίλης Τσιτσάνης, Λιζέτα Νικολάου - Της Γερακίνας Γιος
EXTD=
EXTT0=
EXTT1=
EXTT2=
EXTT3=
EXTT4=
EXTT5=
EXTT6=
EXTT7=
EXTT8=
EXTT9=
EXTT10=
EXTT11=
EXTT12=
EXTT13=
EXTT14=
EXTT15=
EXTT16=
EXTT17=
EXTT18=
EXTT19=
EXTT20=
EXTT21=
EXTT22=
PLAYORDER=
